# xmcd
#
# Track frame offsets:
#	150
#	14194
#	32437
#	46973
#	67534
#	82843
#	103169
#	122205
#	140173
#	156418
#	172672
#	189701
#	208751
#	227055
#	244590
#	255222
#	278352
#	294875
#
# Disc length: 4158 seconds
#
# Revision: 0
# Processed by: cddbd v1.5.2PL0 Copyright (c) Steve Scherf et al.
# Submitted via: dBpowerAMP V4.0
#
DISCID=ec103c12
DTITLE=Bolero Sax - Bohemia Rendez
DYEAR=1900
DGENRE=
TTITLE0=la puerta
TTITLE1=sabor ami
TTITLE2=no
TTITLE3=contigo en la distancia
TTITLE4=cuando tu me quieras
TTITLE5=di que no
TTITLE6=jurame
TTITLE7=sabra dios
TTITLE8=el andariego
TTITLE9=flor de azalea
TTITLE10=bonita
TTITLE11=tres palabras
TTITLE12=todo y nada
TTITLE13=noche de ronda
TTITLE14=farolito
TTITLE15=como fue
TTITLE16=cenizas
TTITLE17=la mentira
EXTD=
EXTT0=
EXTT1=
EXTT2=
EXTT3=
EXTT4=
EXTT5=
EXTT6=
EXTT7=
EXTT8=
EXTT9=
EXTT10=
EXTT11=
EXTT12=
EXTT13=
EXTT14=
EXTT15=
EXTT16=
EXTT17=
PLAYORDER=
